# xmcd
# 
# Track frame offsets:
#     150
#     17550
#     33785
#     55225
#     73658
#     91186
#     99147
#     119910
#     137345
#     155170
#     172709
#     192732
# 
# Disc length: 2767
# 
# Revision: 0
# Processed by: cddbd v1.5.2PL0 Copyright (c) Steve Scherf et al.
# Submitted via: fre:ac v1.0.27
# 
DISCID=980acd0c
DTITLE=The Sands Family - keep on singing
DYEAR=2008
DGENRE=Celtic
TTITLE0=Dan Mc Gra'
TTITLE1=In My Mother's House
TTITLE2=Keep on Singing
TTITLE3=Look where I've ended up now
TTITLE4=The Cheesecake Song
TTITLE5=The Fox's Conversation
TTITLE6=I will always love you
TTITLE7=I turned round
TTITLE8=Time vor asking why
TTITLE9=The Bridge of Mayo
TTITLE10=The Dark Slender Boy
TTITLE11=Rambling and Roving
EXTD=
EXTT0=
EXTT1=
EXTT2=
EXTT3=
EXTT4=
EXTT5=
EXTT6=
EXTT7=
EXTT8=
EXTT9=
EXTT10=
EXTT11=
PLAYORDER=
